# xmcd
# 
# Track frame offsets:
#     150
#     27160
#     34210
#     48760
#     68035
#     90235
#     114835
#     133060
#     152860
#     176035
#     200410
#     211885
#     227635
# 
# Disc length: 3459
# 
# Revision: 2
# Processed by: cddbd v1.5.2PL0 Copyright (c) Steve Scherf et al.
# Submitted via: BonkEnc v1.0.8
# 
DISCID=a40d810d
DTITLE=Larry Coryell - Badi Assad - John Abercrombie - Three Guitars
DYEAR=2003
DGENRE=Contemporary Jazz
TTITLE0=Seu Jorge E Dona Ica
TTITLE1=New Lute Prelude
TTITLE2=Niew Lute Interlude
TTITLE3=Soundtrack
TTITLE4=After The Rain
TTITLE5=Descending Grace
TTITLE6=Metamorphosis
TTITLE7=No Flight Tonight
TTITLE8=Ralph's Piano Waltz
TTITLE9=Suspended Circles
TTITLE10=Exercise In Fourths
TTITLE11=Autumn Breeze
TTITLE12=Timeless
EXTD=YEAR: 2003
EXTT0=
EXTT1=
EXTT2=
EXTT3=
EXTT4=
EXTT5=
EXTT6=
EXTT7=
EXTT8=
EXTT9=
EXTT10=
EXTT11=
EXTT12=
PLAYORDER=
